<mxfile host="app.diagrams.net" modified="2023-10-10T09:42:24.257Z" agent="Mozilla/5.0 (Windows NT 10.0; Win64; x64) AppleWebKit/537.36 (KHTML, like Gecko) Chrome/116.0.0.0 Safari/537.36" etag="PkWa845n5EZ6-x9_GLpt" version="21.7.5" type="device">
  <diagram name="第 1 页" id="hv_zqjtwDKghfNMLgpO7">
    <mxGraphModel dx="989" dy="517" grid="1" gridSize="10" guides="1" tooltips="1" connect="1" arrows="1" fold="1" page="1" pageScale="1" pageWidth="1169" pageHeight="827" math="0" shadow="0">
      <root>
        <mxCell id="0" />
        <mxCell id="1" parent="0" />
        <mxCell id="URFpNurd8cy3T4DWoc81-1" value="&lt;font face=&quot;Comic Sans MS&quot; style=&quot;font-size: 18px;&quot;&gt;Memory pool&lt;/font&gt;" style="swimlane;whiteSpace=wrap;html=1;startSize=23;fillColor=#ffe6cc;strokeColor=#d79b00;rounded=1;" vertex="1" parent="1">
          <mxGeometry x="55" y="90" width="1060" height="600" as="geometry" />
        </mxCell>
        <mxCell id="URFpNurd8cy3T4DWoc81-2" value="&lt;font face=&quot;Comic Sans MS&quot; style=&quot;font-size: 16px;&quot;&gt;static memory space&lt;/font&gt;" style="swimlane;whiteSpace=wrap;html=1;startSize=23;fillColor=#dae8fc;strokeColor=#6c8ebf;rounded=1;" vertex="1" parent="URFpNurd8cy3T4DWoc81-1">
          <mxGeometry y="30" width="230" height="570" as="geometry" />
        </mxCell>
        <mxCell id="URFpNurd8cy3T4DWoc81-6" value="&lt;font style=&quot;font-size: 14px;&quot;&gt;&lt;b&gt;static 声明变量&lt;br&gt;&lt;/b&gt;&lt;/font&gt;" style="rounded=1;whiteSpace=wrap;html=1;fillColor=#dae8fc;strokeColor=#6c8ebf;shadow=1;" vertex="1" parent="URFpNurd8cy3T4DWoc81-2">
          <mxGeometry x="55" y="50" width="120" height="60" as="geometry" />
        </mxCell>
        <mxCell id="URFpNurd8cy3T4DWoc81-26" value="&lt;span style=&quot;font-size: 14px;&quot;&gt;&lt;b&gt;全局变量&lt;/b&gt;&lt;/span&gt;" style="rounded=1;whiteSpace=wrap;html=1;fillColor=#dae8fc;strokeColor=#6c8ebf;shadow=1;" vertex="1" parent="URFpNurd8cy3T4DWoc81-2">
          <mxGeometry x="55" y="296" width="120" height="60" as="geometry" />
        </mxCell>
        <mxCell id="URFpNurd8cy3T4DWoc81-27" value="&lt;span style=&quot;font-size: 14px;&quot;&gt;&lt;b&gt;常量&lt;/b&gt;&lt;/span&gt;" style="rounded=1;whiteSpace=wrap;html=1;fillColor=#dae8fc;strokeColor=#6c8ebf;shadow=1;" vertex="1" parent="URFpNurd8cy3T4DWoc81-2">
          <mxGeometry x="55" y="378" width="120" height="60" as="geometry" />
        </mxCell>
        <mxCell id="URFpNurd8cy3T4DWoc81-28" value="&lt;span style=&quot;font-size: 14px;&quot;&gt;&lt;b&gt;静态数组&lt;/b&gt;&lt;/span&gt;" style="rounded=1;whiteSpace=wrap;html=1;fillColor=#dae8fc;strokeColor=#6c8ebf;shadow=1;" vertex="1" parent="URFpNurd8cy3T4DWoc81-2">
          <mxGeometry x="55" y="132" width="120" height="60" as="geometry" />
        </mxCell>
        <mxCell id="URFpNurd8cy3T4DWoc81-29" value="&lt;span style=&quot;font-size: 14px;&quot;&gt;&lt;b&gt;静态字符串&lt;/b&gt;&lt;/span&gt;" style="rounded=1;whiteSpace=wrap;html=1;fillColor=#dae8fc;strokeColor=#6c8ebf;shadow=1;" vertex="1" parent="URFpNurd8cy3T4DWoc81-2">
          <mxGeometry x="55" y="214" width="120" height="60" as="geometry" />
        </mxCell>
        <mxCell id="URFpNurd8cy3T4DWoc81-30" value="&lt;span style=&quot;font-size: 14px;&quot;&gt;&lt;b&gt;静态数据结构&lt;br&gt;&lt;/b&gt;&lt;/span&gt;" style="rounded=1;whiteSpace=wrap;html=1;fillColor=#dae8fc;strokeColor=#6c8ebf;shadow=1;" vertex="1" parent="URFpNurd8cy3T4DWoc81-2">
          <mxGeometry x="55" y="460" width="120" height="60" as="geometry" />
        </mxCell>
        <mxCell id="URFpNurd8cy3T4DWoc81-3" value="&lt;font face=&quot;Comic Sans MS&quot; style=&quot;font-size: 16px;&quot;&gt;dynamic memory space&lt;/font&gt;" style="swimlane;whiteSpace=wrap;html=1;fillColor=#dae8fc;strokeColor=#6c8ebf;rounded=1;" vertex="1" parent="URFpNurd8cy3T4DWoc81-1">
          <mxGeometry x="260" y="30" width="800" height="570" as="geometry" />
        </mxCell>
        <mxCell id="URFpNurd8cy3T4DWoc81-9" value="&lt;font style=&quot;font-size: 14px;&quot;&gt;栈区&lt;/font&gt;" style="swimlane;horizontal=0;whiteSpace=wrap;html=1;fillColor=#f8cecc;strokeColor=#b85450;rounded=1;glass=0;swimlaneLine=0;" vertex="1" parent="URFpNurd8cy3T4DWoc81-3">
          <mxGeometry x="15" y="40" width="765" height="220" as="geometry" />
        </mxCell>
        <mxCell id="URFpNurd8cy3T4DWoc81-18" value="&lt;span style=&quot;font-size: 14px;&quot;&gt;&lt;b&gt;局部函数及局部变量&lt;/b&gt;&lt;/span&gt;" style="rounded=1;whiteSpace=wrap;html=1;fillColor=#f8cecc;strokeColor=#b85450;" vertex="1" parent="URFpNurd8cy3T4DWoc81-9">
          <mxGeometry x="40" y="20" width="140" height="50" as="geometry" />
        </mxCell>
        <mxCell id="URFpNurd8cy3T4DWoc81-25" value="" style="curved=1;endArrow=classic;html=1;rounded=0;strokeColor=#6c8ebf;fillColor=#dae8fc;dashed=1;" edge="1" parent="URFpNurd8cy3T4DWoc81-9">
          <mxGeometry width="50" height="50" relative="1" as="geometry">
            <mxPoint x="320" y="330" as="sourcePoint" />
            <mxPoint x="360" y="40" as="targetPoint" />
            <Array as="points">
              <mxPoint x="370" y="260" />
              <mxPoint x="510" y="190" />
              <mxPoint x="530" y="80" />
              <mxPoint x="470" y="40" />
            </Array>
          </mxGeometry>
        </mxCell>
        <mxCell id="URFpNurd8cy3T4DWoc81-32" value="&lt;font face=&quot;Comic Sans MS&quot; style=&quot;font-size: 14px;&quot;&gt;p 存在于栈区域，但是*p 所指向的空间为堆区&lt;/font&gt;" style="text;html=1;align=center;verticalAlign=middle;resizable=0;points=[];autosize=1;strokeColor=none;fillColor=none;" vertex="1" parent="URFpNurd8cy3T4DWoc81-9">
          <mxGeometry x="185" y="95" width="310" height="30" as="geometry" />
        </mxCell>
        <mxCell id="URFpNurd8cy3T4DWoc81-33" value="&lt;span style=&quot;font-size: 14px;&quot;&gt;&lt;b&gt;函数中malloc()&lt;/b&gt;&lt;/span&gt;" style="rounded=1;whiteSpace=wrap;html=1;fillColor=#f8cecc;strokeColor=#b85450;" vertex="1" parent="URFpNurd8cy3T4DWoc81-9">
          <mxGeometry x="50" y="120" width="120" height="60" as="geometry" />
        </mxCell>
        <mxCell id="URFpNurd8cy3T4DWoc81-41" value="&lt;h1&gt;栈区&lt;/h1&gt;&lt;p&gt;&lt;font style=&quot;font-size: 16px;&quot;&gt;函数自行申请，在生命周期末，自动释放&lt;/font&gt;&lt;/p&gt;" style="text;html=1;strokeColor=#b85450;fillColor=#f8cecc;spacing=5;spacingTop=-20;whiteSpace=wrap;overflow=hidden;rounded=1;dashed=1;dashPattern=8 8;" vertex="1" parent="URFpNurd8cy3T4DWoc81-9">
          <mxGeometry x="600" width="165" height="120" as="geometry" />
        </mxCell>
        <mxCell id="URFpNurd8cy3T4DWoc81-19" value="&lt;font style=&quot;font-size: 14px;&quot; face=&quot;Comic Sans MS&quot;&gt;i = 1;&lt;br&gt;&lt;/font&gt;" style="text;html=1;align=center;verticalAlign=middle;resizable=0;points=[];autosize=1;strokeColor=none;fillColor=none;" vertex="1" parent="URFpNurd8cy3T4DWoc81-9">
          <mxGeometry x="315" y="20" width="50" height="30" as="geometry" />
        </mxCell>
        <mxCell id="URFpNurd8cy3T4DWoc81-43" value="&lt;font style=&quot;font-size: 14px;&quot; face=&quot;Comic Sans MS&quot;&gt;int&amp;nbsp; * p = malloc();&lt;/font&gt;" style="text;html=1;align=center;verticalAlign=middle;resizable=0;points=[];autosize=1;strokeColor=none;fillColor=none;" vertex="1" parent="URFpNurd8cy3T4DWoc81-9">
          <mxGeometry x="200" y="120" width="140" height="30" as="geometry" />
        </mxCell>
        <mxCell id="URFpNurd8cy3T4DWoc81-37" value="&lt;font style=&quot;font-size: 13px;&quot; face=&quot;Comic Sans MS&quot;&gt;在函数中：&lt;br&gt;* path = 3;&lt;/font&gt;" style="text;html=1;align=center;verticalAlign=middle;resizable=0;points=[];autosize=1;strokeColor=none;fillColor=none;" vertex="1" parent="URFpNurd8cy3T4DWoc81-9">
          <mxGeometry x="390" y="160" width="90" height="40" as="geometry" />
        </mxCell>
        <mxCell id="URFpNurd8cy3T4DWoc81-51" value="&lt;font style=&quot;font-size: 13px;&quot; face=&quot;Comic Sans MS&quot;&gt;在函数中：&lt;br&gt;path = malloc();&lt;br&gt;即使函数结束了，依旧可以访问&lt;br&gt;&lt;/font&gt;" style="text;html=1;align=center;verticalAlign=middle;resizable=0;points=[];autosize=1;strokeColor=none;fillColor=none;" vertex="1" parent="URFpNurd8cy3T4DWoc81-9">
          <mxGeometry x="470" y="160" width="210" height="60" as="geometry" />
        </mxCell>
        <mxCell id="URFpNurd8cy3T4DWoc81-53" value="" style="curved=1;endArrow=classic;html=1;rounded=0;entryX=1;entryY=0.5;entryDx=0;entryDy=0;fillColor=#d5e8d4;strokeColor=#82b366;dashed=1;" edge="1" parent="URFpNurd8cy3T4DWoc81-9">
          <mxGeometry width="50" height="50" relative="1" as="geometry">
            <mxPoint x="619.9999999999998" y="184.99739130434764" as="sourcePoint" />
            <mxPoint x="634.9999999999998" y="253.7799999999999" as="targetPoint" />
            <Array as="points">
              <mxPoint x="675" y="189.78" />
              <mxPoint x="665" y="249.78" />
            </Array>
          </mxGeometry>
        </mxCell>
        <mxCell id="URFpNurd8cy3T4DWoc81-10" value="&lt;font style=&quot;font-size: 14px;&quot;&gt;堆区&lt;/font&gt;" style="swimlane;horizontal=0;whiteSpace=wrap;html=1;fillColor=#d5e8d4;strokeColor=#82b366;rounded=1;glass=0;swimlaneLine=0;" vertex="1" parent="URFpNurd8cy3T4DWoc81-3">
          <mxGeometry x="15" y="270" width="765" height="290" as="geometry" />
        </mxCell>
        <mxCell id="URFpNurd8cy3T4DWoc81-17" value="&lt;span style=&quot;font-size: 14px;&quot;&gt;&lt;b&gt;malloc()申请内存&lt;/b&gt;&lt;/span&gt;" style="rounded=1;whiteSpace=wrap;html=1;fillColor=#d5e8d4;strokeColor=#82b366;" vertex="1" parent="URFpNurd8cy3T4DWoc81-10">
          <mxGeometry x="40" y="24" width="140" height="60" as="geometry" />
        </mxCell>
        <mxCell id="URFpNurd8cy3T4DWoc81-20" value="&lt;span style=&quot;font-size: 14px;&quot;&gt;&lt;b&gt;.h 文件中&lt;br&gt;&lt;font face=&quot;Comic Sans MS&quot;&gt;int i;&lt;/font&gt;&lt;br&gt;&lt;/b&gt;&lt;/span&gt;" style="rounded=1;whiteSpace=wrap;html=1;fillColor=#d5e8d4;strokeColor=#82b366;" vertex="1" parent="URFpNurd8cy3T4DWoc81-10">
          <mxGeometry x="260" y="100" width="120" height="60" as="geometry" />
        </mxCell>
        <mxCell id="URFpNurd8cy3T4DWoc81-42" value="&lt;h1&gt;堆区&lt;/h1&gt;&lt;p&gt;&lt;font face=&quot;Comic Sans MS&quot; style=&quot;font-size: 16px;&quot;&gt;程序员可以自行分配，但是切记要 free 释放，否则会造成内存泄漏&lt;/font&gt;&lt;/p&gt;" style="text;html=1;strokeColor=#82b366;fillColor=#d5e8d4;spacing=5;spacingTop=-20;whiteSpace=wrap;overflow=hidden;rounded=1;glass=0;shadow=0;dashed=1;dashPattern=12 12;" vertex="1" parent="URFpNurd8cy3T4DWoc81-10">
          <mxGeometry x="500" y="170" width="265" height="120" as="geometry" />
        </mxCell>
        <mxCell id="URFpNurd8cy3T4DWoc81-36" value="&lt;font face=&quot;Comic Sans MS&quot; style=&quot;font-size: 14px;&quot;&gt;int * path = NULL;&lt;/font&gt;" style="text;html=1;align=center;verticalAlign=middle;resizable=0;points=[];autosize=1;strokeColor=none;fillColor=none;" vertex="1" parent="URFpNurd8cy3T4DWoc81-10">
          <mxGeometry x="560" y="59" width="140" height="30" as="geometry" />
        </mxCell>
        <mxCell id="URFpNurd8cy3T4DWoc81-40" value="&lt;font face=&quot;Comic Sans MS&quot; style=&quot;font-size: 14px;&quot;&gt;path 本身存储在堆区，但是由于在函数中&lt;br&gt;（栈区）进行了初始化，所以 * path 为栈区，&lt;br&gt;但是，当函数结束后，* path被自动释放&lt;br&gt;此时 path为野指针，根本不知道它指向何处&lt;/font&gt;" style="text;html=1;align=center;verticalAlign=middle;resizable=0;points=[];autosize=1;strokeColor=none;fillColor=none;" vertex="1" parent="URFpNurd8cy3T4DWoc81-10">
          <mxGeometry x="440" y="80" width="310" height="80" as="geometry" />
        </mxCell>
        <mxCell id="URFpNurd8cy3T4DWoc81-50" value="&lt;font face=&quot;Comic Sans MS&quot; style=&quot;font-size: 14px;&quot;&gt;在函数中使用 malloc 申请的内存在堆中&lt;br&gt;但是函数结束后， p 会消失，但是&lt;br&gt;* p 所申请的空间不会消失，若没有free&lt;br&gt;就会造成内存泄漏&lt;/font&gt;" style="text;html=1;align=center;verticalAlign=middle;resizable=0;points=[];autosize=1;strokeColor=none;fillColor=none;" vertex="1" parent="URFpNurd8cy3T4DWoc81-10">
          <mxGeometry x="100" y="190" width="270" height="80" as="geometry" />
        </mxCell>
        <mxCell id="URFpNurd8cy3T4DWoc81-52" value="&lt;b&gt;path指向的内存&lt;/b&gt;" style="rounded=1;whiteSpace=wrap;html=1;fillColor=#d5e8d4;strokeColor=#82b366;" vertex="1" parent="URFpNurd8cy3T4DWoc81-10">
          <mxGeometry x="530" y="11" width="100" height="26" as="geometry" />
        </mxCell>
        <mxCell id="URFpNurd8cy3T4DWoc81-34" style="edgeStyle=orthogonalEdgeStyle;rounded=0;orthogonalLoop=1;jettySize=auto;html=1;exitX=0.5;exitY=1;exitDx=0;exitDy=0;entryX=0.5;entryY=0;entryDx=0;entryDy=0;" edge="1" parent="URFpNurd8cy3T4DWoc81-3" source="URFpNurd8cy3T4DWoc81-33" target="URFpNurd8cy3T4DWoc81-17">
          <mxGeometry relative="1" as="geometry" />
        </mxCell>
        <mxCell id="URFpNurd8cy3T4DWoc81-38" value="" style="curved=1;endArrow=classic;html=1;rounded=0;strokeColor=#b85450;fillColor=#f8cecc;dashed=1;exitX=0.462;exitY=-0.037;exitDx=0;exitDy=0;exitPerimeter=0;" edge="1" parent="URFpNurd8cy3T4DWoc81-3" source="URFpNurd8cy3T4DWoc81-40" target="URFpNurd8cy3T4DWoc81-37">
          <mxGeometry width="50" height="50" relative="1" as="geometry">
            <mxPoint x="565" y="320" as="sourcePoint" />
            <mxPoint x="435" y="230" as="targetPoint" />
            <Array as="points">
              <mxPoint x="535" y="320" />
              <mxPoint x="505" y="310" />
              <mxPoint x="425" y="280" />
            </Array>
          </mxGeometry>
        </mxCell>
        <mxCell id="URFpNurd8cy3T4DWoc81-49" value="" style="curved=1;endArrow=classic;html=1;rounded=0;strokeColor=#b85450;fillColor=#f8cecc;dashed=1;exitX=0.314;exitY=1.133;exitDx=0;exitDy=0;exitPerimeter=0;" edge="1" parent="1" source="URFpNurd8cy3T4DWoc81-43">
          <mxGeometry width="50" height="50" relative="1" as="geometry">
            <mxPoint x="570" y="347.5" as="sourcePoint" />
            <mxPoint x="430" y="590" as="targetPoint" />
            <Array as="points">
              <mxPoint x="550" y="387.5" />
              <mxPoint x="540" y="470" />
              <mxPoint x="520" y="497.5" />
              <mxPoint x="470" y="510" />
              <mxPoint x="420" y="510" />
              <mxPoint x="400" y="550" />
            </Array>
          </mxGeometry>
        </mxCell>
      </root>
    </mxGraphModel>
  </diagram>
</mxfile>
